# xmcd
#
# Track frame offsets: 
#        183
#        17083
#        33330
#        50160
#        67615
#        84775
#        103163
#        126850
#
# Disc length: 2005 seconds
#
# Revision: 1
# Processed by: cddbd v1.5.2PL0 Copyright (c) Steve Scherf et al.
# Submitted via: ExactAudioCopyFreeDBPlugin 1.0
#
DISCID=5d07d308
DTITLE=Johnny Gill - The Floor [CDS Promo)
DYEAR=1993
DGENRE=R&B
TTITLE0=The Floor (Pop Edit #1)
TTITLE1=The Floor (Pop Edit #2)
TTITLE2=The Floor (Pop Edit #3)
TTITLE3=The Floor (Flyte Tyme Edit)
TTITLE4=The Floor (R&B Edit)
TTITLE5=The Floor (Video Edit))
TTITLE6=The Floor (Instrumental)
TTITLE7=The Floor (LP Version)
EXTD=
EXTT0=
EXTT1=
EXTT2=
EXTT3=
EXTT4=
EXTT5=
EXTT6=
EXTT7=
PLAYORDER=
